Coordinates
nRows=10
nColumns=24

# SIMM Motion File Header:
name Coordinates
datacolumns 24
datarows 10
otherdata 1
range 0.92100000000000004000 0.93000000000000005000
endheader
time	pelvis_tx	pelvis_ty	pelvis_tz	pelvis_tilt	pelvis_list	pelvis_rotation	hip_flexion_r	hip_adduction_r	hip_rotation_r	knee_angle_r	ankle_angle_r	subtalar_angle_r	mtp_angle_r	hip_flexion_l	hip_adduction_l	hip_rotation_l	knee_angle_l	ankle_angle_l	subtalar_angle_l	mtp_angle_l	lumbar_extension	lumbar_bending	lumbar_rotation
      0.92100000000000004000	     -0.42950312919488931000	      0.82535088073398910000	     -0.28308892579539496000	     15.39533081524280400000	      5.55890620780945620000	     10.97345247941908900000	      6.35178093567833990000	     -8.52665727139063990000	      0.17355912570809412000	      7.76302110760518180000	      3.43485754866930470000	     -0.00000000000018075849	     -0.00000000000016978403	    -45.15084139898421300000	     -1.10256828805523010000	     11.10517384768138200000	      2.17160362161956220000	      3.78541276979236100000	     -0.00000000000009129007	      0.00000000000031768873	    -25.68649797714483200000	     -0.16731221457799361000	    -11.80354436057298400000
      0.92200000000000004000	     -0.42757334537257091000	      0.82511401664625761000	     -0.28318706611894234000	     15.39991194508284000000	      5.51143869482493990000	     10.99862730565840800000	      6.38116754673972060000	     -8.45571203315129160000	      0.14379871661029597000	      7.60577398575924860000	      3.34675145127719760000	     -0.00000000000018105529	     -0.00000000000016976591	    -45.16525426739495000000	     -1.16000694411689320000	     11.05940780836580300000	      2.01170165033893200000	      3.66616661017222080000	     -0.00000000000009148553	      0.00000000000031871409	    -25.65698459841524600000	     -0.09567925055685878900	    -11.81275869717779900000
      0.92300000000000004000	     -0.42564104752162168000	      0.82487992125784193000	     -0.28328486918975077000	     15.40454438315333800000	      5.46303843210146670000	     11.02365859856939100000	      6.40984259349513950000	     -8.38356693601742540000	      0.11138716073943383000	      7.44966356765934630000	      3.23260105787444020000	     -0.00000000000018132407	     -0.00000000000016973666	    -45.17832235194783400000	     -1.21800915610456850000	     11.01293293039394100000	      1.84961600678806400000	      3.54543182934311710000	     -0.00000000000009167904	      0.00000000000031972333	    -25.62715649336321600000	     -0.02307522942917223200	    -11.82165291117367000000
      0.92400000000000004000	     -0.42370598197218157000	      0.82464614909223721000	     -0.28338038705425800000	     15.40824218615111700000	      5.41416360508889220000	     11.04726845517349400000	      6.44119243224329010000	     -8.31068514432711500000	      0.08027155154837613300	      7.28901498469113380000	      3.12927523141555630000	     -0.00000000000018156831	     -0.00000000000016969737	    -45.18933461275597100000	     -1.27514712410314690000	     10.96492456863615800000	      1.68569766099698230000	      3.42203740329783160000	     -0.00000000000009188816	      0.00000000000032078461	    -25.59608057994976300000	      0.04926767479313249500	    -11.82923959895002500000
      0.92500000000000004000	     -0.42176261332726855000	      0.82441334659506593000	     -0.28346904929986155000	     15.40913608393074700000	      5.36386508520901820000	     11.06661400285696600000	      6.48056664696962150000	     -8.23559326896747020000	      0.05304378239672542100	      7.11475190711801450000	      3.05842310578823980000	     -0.00000000000018173892	     -0.00000000000016962798	    -45.19417940232984400000	     -1.32969236013443900000	     10.91231575552062700000	      1.51628120848526750000	      3.29066404160401400000	     -0.00000000000009214410	      0.00000000000032200206	    -25.56126124145205500000	      0.12082722829929302000	    -11.83290370806784300000
      0.92600000000000005000	     -0.41981924468235554000	      0.82418054409789454000	     -0.28355771154546516000	     15.41002998171037700000	      5.31356656532914420000	     11.08595955054043500000	      6.51994086169595200000	     -8.16050139360782720000	      0.02581601324507470900	      6.94048882954489520000	      2.98757098016092340000	     -0.00000000000018190953	     -0.00000000000016955859	    -45.19902419190372500000	     -1.38423759616573120000	     10.85970694240509500000	      1.34686475597355290000	      3.15929067991019610000	     -0.00000000000009240003	      0.00000000000032321950	    -25.52644190295434600000	      0.19238678180545354000	    -11.83656781718565800000
      0.92700000000000005000	     -0.41786727473824292000	      0.82395017571293516000	     -0.28364037295877187000	     15.40956785936080000000	      5.26135446719222970000	     11.10186925138904700000	      6.56633624350900020000	     -8.08237360571965620000	      0.00391818242569917650	      6.74995380863426320000	      2.98318421786885320000	     -0.00000000000018207347	     -0.00000000000016957495	    -45.19935220761193100000	     -1.43759114997278910000	     10.80209782089311200000	      1.17246801911890760000	      3.01893544380586580000	     -0.00000000000009266995	      0.00000000000032446447	    -25.48928772844303800000	      0.26430055112505940000	    -11.83682790077631000000
      0.92800000000000005000	     -0.41590904011387131000	      0.82372699186910325000	     -0.28372202817706188000	     15.41087017094021400000	      5.20664727370548610000	     11.11774192071618100000	      6.61222784494405590000	     -8.00062634500954140000	     -0.01886420648859708400	      6.55293418747306330000	      2.99842718398785600000	     -0.00000000000018225133	     -0.00000000000016950961	    -45.19852331321217800000	     -1.49328819125345170000	     10.74159258439436100000	      0.99374376307301038000	      2.87198920710359930000	     -0.00000000000009293096	      0.00000000000032569361	    -25.45307543197638700000	      0.33923390273490001000	    -11.83641139858224100000
      0.92900000000000005000	     -0.41394871726274668000	      0.82350620287231391000	     -0.28380334799701296000	     15.41276062716262600000	      5.15110838176879770000	     11.13360224620282100000	      6.65795151958644560000	     -7.91767259335877770000	     -0.04194144810120169900	      6.35375303289500600000	      3.02021339291055480000	     -0.00000000000018243382	     -0.00000000000016941704	    -45.19730878210977200000	     -1.54976639502531780000	     10.68012197623335200000	      0.81357700063002669000	      2.72284597020201780000	     -0.00000000000009318901	      0.00000000000032691747	    -25.41717709485795500000	      0.41517378177482100000	    -11.83576936779326300000
      0.93000000000000005000	     -0.41198613890374097000	      0.82328988507933942000	     -0.28388477814146423000	     15.41604306558301300000	      5.09423593893594620000	     11.14984634403298000000	      6.70221321804967120000	     -7.83287434063051350000	     -0.06678567012105741900	      6.15343490208456330000	      3.03217210124802160000	     -0.00000000000018261749	     -0.00000000000016934693	    -45.19603593233016900000	     -1.60786751060538750000	     10.61751305053558900000	      0.63133812201913564000	      2.57095281873743090000	     -0.00000000000009344352	      0.00000000000032813179	    -25.38233668835418700000	      0.49298814523971835000	    -11.83509016848715800000
